<svg id="visual" viewBox="0 0 900 600" width="900" height="600" xmlns="http://www.w3.org/2000/svg" xmlns:xlink="http://www.w3.org/1999/xlink" version="1.1"><rect width="900" height="600" fill="#9ca3af"></rect><g><g transform="translate(73 100)"><path d="M83 -66.9C101.1 -43.4 105 -9.3 97.7 22.1C90.3 53.5 71.9 82.2 45.7 94.7C19.5 107.3 -14.4 103.8 -43.2 89.8C-71.9 75.9 -95.5 51.6 -105.3 20.6C-115 -10.3 -110.9 -47.7 -91.1 -71.6C-71.2 -95.4 -35.6 -105.7 -1.6 -104.4C32.4 -103.2 64.8 -90.4 83 -66.9Z" stroke="#9333ea" fill="none" stroke-width="27"></path></g><g transform="translate(835 264)"><path d="M55.7 -44.2C66.8 -30.4 66.8 -7.6 61.6 13.6C56.4 34.7 45.9 54.2 29.4 62.9C12.8 71.7 -9.9 69.7 -28.3 60.3C-46.6 50.8 -60.7 33.9 -66.4 13.7C-72.2 -6.5 -69.7 -30 -57.2 -44.1C-44.8 -58.2 -22.4 -62.8 -0.1 -62.8C22.3 -62.7 44.5 -58 55.7 -44.2Z" stroke="#9333ea" fill="none" stroke-width="27"></path></g><g transform="translate(131 504)"><path d="M80.2 -60.6C100.6 -38.3 111.7 -5.1 104.7 23.1C97.6 51.2 72.3 74.5 42.4 89.4C12.5 104.3 -22 110.8 -51.3 99.5C-80.6 88.1 -104.6 58.7 -110.5 26.9C-116.5 -4.9 -104.3 -39.2 -82.9 -61.7C-61.4 -84.2 -30.7 -95 -0.4 -94.7C29.8 -94.3 59.7 -82.9 80.2 -60.6Z" stroke="#9333ea" fill="none" stroke-width="27"></path></g><g transform="translate(363 262)"><path d="M52.5 -42C63.1 -28.5 63.4 -7 58.2 12.2C53 31.4 42.2 48.3 26.6 56.2C11 64.1 -9.4 63 -27.6 55.1C-45.9 47.2 -61.9 32.5 -65.5 15.4C-69 -1.8 -60.2 -21.4 -47.2 -35.4C-34.2 -49.5 -17.1 -58 1.9 -59.6C20.9 -61.1 41.8 -55.6 52.5 -42Z" stroke="#9333ea" fill="none" stroke-width="27"></path></g><g transform="translate(564 50)"><path d="M45.6 -35.8C56.3 -23 60.2 -4.2 56.1 12.5C52 29.1 40 43.5 24.3 51.5C8.6 59.5 -10.8 61 -26.4 53.8C-42 46.7 -53.8 30.8 -56.6 14.2C-59.4 -2.5 -53.2 -19.9 -42.2 -32.8C-31.3 -45.7 -15.6 -53.9 0.9 -54.6C17.5 -55.4 34.9 -48.6 45.6 -35.8Z" stroke="#9333ea" fill="none" stroke-width="27"></path></g><g transform="translate(607 464)"><path d="M42.4 -33.7C52.3 -21.4 55.8 -3.9 51.7 11C47.6 25.8 36 38.2 21.2 46.1C6.4 54 -11.5 57.5 -26.3 51.5C-41.1 45.6 -52.9 30.2 -56.2 13.5C-59.5 -3.2 -54.3 -21.2 -43.5 -33.7C-32.8 -46.2 -16.4 -53.3 -0.1 -53.2C16.2 -53.2 32.5 -46 42.4 -33.7Z" stroke="#9333ea" fill="none" stroke-width="27"></path></g><g transform="translate(879 577)"><path d="M70.8 -54.8C90 -32.5 102.4 -3.1 96.3 21.3C90.2 45.8 65.5 65.3 37.9 78.6C10.3 91.8 -20.2 98.6 -44.4 88.4C-68.5 78.2 -86.1 51 -91.9 22C-97.6 -6.9 -91.5 -37.5 -74.2 -59.4C-56.9 -81.3 -28.5 -94.5 -1.3 -93.5C25.8 -92.5 51.7 -77.1 70.8 -54.8Z" stroke="#9333ea" fill="none" stroke-width="27"></path></g></g></svg>