<svg id="visual" viewBox="0 0 900 600" width="900" height="600" xmlns="http://www.w3.org/2000/svg" xmlns:xlink="http://www.w3.org/1999/xlink" version="1.1"><rect width="900" height="600" fill="#9ca3af"></rect><g><g transform="translate(439 194)"><path d="M77.6 -59.7C97.6 -36.7 108.9 -4.6 102.4 23.2C95.9 51 71.6 74.5 43.2 87.2C14.9 99.8 -17.4 101.5 -43.1 89.3C-68.7 77 -87.7 50.7 -96 20.2C-104.3 -10.2 -101.9 -44.8 -84.1 -67.3C-66.3 -89.8 -33.2 -100.2 -2.2 -98.5C28.8 -96.7 57.5 -82.8 77.6 -59.7Z" stroke="#9333ea" fill="none" stroke-width="27"></path></g><g transform="translate(64 590)"><path d="M83.1 -67.2C103.6 -40.6 113.2 -6.3 106 23.7C98.8 53.7 74.7 79.4 46.5 90.9C18.2 102.4 -14.3 99.7 -42.2 86.6C-70.2 73.6 -93.6 50.1 -103.2 20.1C-112.8 -9.9 -108.5 -46.5 -89 -72.9C-69.5 -99.2 -34.8 -115.3 -1.7 -113.9C31.3 -112.6 62.6 -93.7 83.1 -67.2Z" stroke="#9333ea" fill="none" stroke-width="27"></path></g><g transform="translate(796 467)"><path d="M60.2 -48.9C74 -30.7 78.4 -5.9 73.4 17.1C68.4 40.1 54.1 61.3 34 71.2C14 81 -11.8 79.4 -30.6 68.5C-49.5 57.5 -61.4 37.1 -64.7 16.5C-68 -4.1 -62.7 -24.9 -50.4 -42.7C-38.2 -60.5 -19.1 -75.3 2.1 -76.9C23.2 -78.6 46.4 -67.1 60.2 -48.9Z" stroke="#9333ea" fill="none" stroke-width="27"></path></g><g transform="translate(357 478)"><path d="M53.5 -44.7C64.4 -29 64.9 -7.1 59.6 12.6C54.3 32.2 43.2 49.4 26.2 59.5C9.2 69.7 -13.6 72.7 -31.7 64.5C-49.8 56.3 -63.2 36.9 -66.5 16.8C-69.8 -3.3 -63.1 -24.2 -50.3 -40.2C-37.6 -56.3 -18.8 -67.6 1.3 -68.6C21.3 -69.6 42.6 -60.3 53.5 -44.7Z" stroke="#9333ea" fill="none" stroke-width="27"></path></g><g transform="translate(70 31)"><path d="M91 -71.4C113.8 -44 125.4 -6.4 117.9 27C110.3 60.4 83.7 89.5 50.9 104.9C18.2 120.3 -20.7 122.1 -53.3 107.6C-85.8 93.1 -112 62.3 -118.2 28.8C-124.4 -4.7 -110.6 -41 -87.6 -68.4C-64.6 -95.9 -32.3 -114.5 0.9 -115.2C34.1 -115.9 68.2 -98.7 91 -71.4Z" stroke="#9333ea" fill="none" stroke-width="27"></path></g><g transform="translate(768 37)"><path d="M58.9 -48.6C73.5 -28.6 80.5 -4.3 76.4 19C72.4 42.4 57.2 64.8 35.3 76.7C13.3 88.6 -15.3 90 -37.7 78.9C-60 67.9 -76 44.5 -80.7 19.7C-85.3 -5.1 -78.6 -31.2 -63.2 -51.4C-47.9 -71.5 -23.9 -85.8 -0.9 -85.1C22.1 -84.3 44.3 -68.6 58.9 -48.6Z" stroke="#9333ea" fill="none" stroke-width="27"></path></g></g></svg>